CATALOG 0000000000000
FILE "Tokimeki Card Paradise - Koi no Royal Straight Flush (Japan) (Track 01).bin" BINARY
  TRACK 01 AUDIO
    INDEX 01 00:00:00
FILE "Tokimeki Card Paradise - Koi no Royal Straight Flush (Japan) (Track 02).bin" BINARY
  TRACK 02 MODE1/2352
    INDEX 00 00:00:00
    INDEX 01 00:03:00
FILE "Tokimeki Card Paradise - Koi no Royal Straight Flush (Japan) (Track 03).bin" BINARY
  TRACK 03 AUDIO
    INDEX 00 00:00:00
    INDEX 01 00:02:00
FILE "Tokimeki Card Paradise - Koi no Royal Straight Flush (Japan) (Track 04).bin" BINARY
  TRACK 04 AUDIO
    INDEX 01 00:00:00
FILE "Tokimeki Card Paradise - Koi no Royal Straight Flush (Japan) (Track 05).bin" BINARY
  TRACK 05 AUDIO
    INDEX 01 00:00:00
FILE "Tokimeki Card Paradise - Koi no Royal Straight Flush (Japan) (Track 06).bin" BINARY
  TRACK 06 AUDIO
    INDEX 01 00:00:00
FILE "Tokimeki Card Paradise - Koi no Royal Straight Flush (Japan) (Track 07).bin" BINARY
  TRACK 07 AUDIO
    INDEX 01 00:00:00
FILE "Tokimeki Card Paradise - Koi no Royal Straight Flush (Japan) (Track 08).bin" BINARY
  TRACK 08 AUDIO
    INDEX 01 00:00:00
FILE "Tokimeki Card Paradise - Koi no Royal Straight Flush (Japan) (Track 09).bin" BINARY
  TRACK 09 AUDIO
    INDEX 01 00:00:00
FILE "Tokimeki Card Paradise - Koi no Royal Straight Flush (Japan) (Track 10).bin" BINARY
  TRACK 10 AUDIO
    INDEX 01 00:00:00
FILE "Tokimeki Card Paradise - Koi no Royal Straight Flush (Japan) (Track 11).bin" BINARY
  TRACK 11 AUDIO
    INDEX 01 00:00:00
FILE "Tokimeki Card Paradise - Koi no Royal Straight Flush (Japan) (Track 12).bin" BINARY
  TRACK 12 AUDIO
    INDEX 01 00:00:00
FILE "Tokimeki Card Paradise - Koi no Royal Straight Flush (Japan) (Track 13).bin" BINARY
  TRACK 13 AUDIO
    INDEX 01 00:00:00
FILE "Tokimeki Card Paradise - Koi no Royal Straight Flush (Japan) (Track 14).bin" BINARY
  TRACK 14 AUDIO
    INDEX 01 00:00:00
FILE "Tokimeki Card Paradise - Koi no Royal Straight Flush (Japan) (Track 15).bin" BINARY
  TRACK 15 AUDIO
    INDEX 01 00:00:00
FILE "Tokimeki Card Paradise - Koi no Royal Straight Flush (Japan) (Track 16).bin" BINARY
  TRACK 16 AUDIO
    INDEX 01 00:00:00
FILE "Tokimeki Card Paradise - Koi no Royal Straight Flush (Japan) (Track 17).bin" BINARY
  TRACK 17 MODE1/2352
    INDEX 00 00:00:00
    INDEX 01 00:03:00
FILE "Tokimeki Card Paradise - Koi no Royal Straight Flush (Japan) (Track 18).bin" BINARY
  TRACK 18 MODE1/2352
    INDEX 01 00:00:00
FILE "Tokimeki Card Paradise - Koi no Royal Straight Flush (Japan) (Track 19).bin" BINARY
  TRACK 19 MODE1/2352
    INDEX 01 00:00:00
FILE "Tokimeki Card Paradise - Koi no Royal Straight Flush (Japan) (Track 20).bin" BINARY
  TRACK 20 MODE1/2352
    INDEX 01 00:00:00
FILE "Tokimeki Card Paradise - Koi no Royal Straight Flush (Japan) (Track 21).bin" BINARY
  TRACK 21 MODE1/2352
    INDEX 01 00:00:00
FILE "Tokimeki Card Paradise - Koi no Royal Straight Flush (Japan) (Track 22).bin" BINARY
  TRACK 22 MODE1/2352
    INDEX 01 00:00:00
FILE "Tokimeki Card Paradise - Koi no Royal Straight Flush (Japan) (Track 23).bin" BINARY
  TRACK 23 MODE1/2352
    INDEX 01 00:00:00
FILE "Tokimeki Card Paradise - Koi no Royal Straight Flush (Japan) (Track 24).bin" BINARY
  TRACK 24 MODE1/2352
    INDEX 01 00:00:00
FILE "Tokimeki Card Paradise - Koi no Royal Straight Flush (Japan) (Track 25).bin" BINARY
  TRACK 25 MODE1/2352
    INDEX 01 00:00:00
FILE "Tokimeki Card Paradise - Koi no Royal Straight Flush (Japan) (Track 26).bin" BINARY
  TRACK 26 MODE1/2352
    INDEX 01 00:00:00
FILE "Tokimeki Card Paradise - Koi no Royal Straight Flush (Japan) (Track 27).bin" BINARY
  TRACK 27 MODE1/2352
    INDEX 01 00:00:00
FILE "Tokimeki Card Paradise - Koi no Royal Straight Flush (Japan) (Track 28).bin" BINARY
  TRACK 28 MODE1/2352
    INDEX 01 00:00:00
FILE "Tokimeki Card Paradise - Koi no Royal Straight Flush (Japan) (Track 29).bin" BINARY
  TRACK 29 MODE1/2352
    INDEX 01 00:00:00
FILE "Tokimeki Card Paradise - Koi no Royal Straight Flush (Japan) (Track 30).bin" BINARY
  TRACK 30 MODE1/2352
    INDEX 01 00:00:00
FILE "Tokimeki Card Paradise - Koi no Royal Straight Flush (Japan) (Track 31).bin" BINARY
  TRACK 31 MODE1/2352
    INDEX 01 00:00:00
FILE "Tokimeki Card Paradise - Koi no Royal Straight Flush (Japan) (Track 32).bin" BINARY
  TRACK 32 MODE1/2352
    INDEX 01 00:00:00
FILE "Tokimeki Card Paradise - Koi no Royal Straight Flush (Japan) (Track 33).bin" BINARY
  TRACK 33 MODE1/2352
    INDEX 01 00:00:00
FILE "Tokimeki Card Paradise - Koi no Royal Straight Flush (Japan) (Track 34).bin" BINARY
  TRACK 34 MODE1/2352
    INDEX 01 00:00:00
FILE "Tokimeki Card Paradise - Koi no Royal Straight Flush (Japan) (Track 35).bin" BINARY
  TRACK 35 MODE1/2352
    INDEX 01 00:00:00
FILE "Tokimeki Card Paradise - Koi no Royal Straight Flush (Japan) (Track 36).bin" BINARY
  TRACK 36 MODE1/2352
    INDEX 01 00:00:00
FILE "Tokimeki Card Paradise - Koi no Royal Straight Flush (Japan) (Track 37).bin" BINARY
  TRACK 37 MODE1/2352
    INDEX 01 00:00:00
FILE "Tokimeki Card Paradise - Koi no Royal Straight Flush (Japan) (Track 38).bin" BINARY
  TRACK 38 MODE1/2352
    INDEX 01 00:00:00
FILE "Tokimeki Card Paradise - Koi no Royal Straight Flush (Japan) (Track 39).bin" BINARY
  TRACK 39 MODE1/2352
    INDEX 01 00:00:00
FILE "Tokimeki Card Paradise - Koi no Royal Straight Flush (Japan) (Track 40).bin" BINARY
  TRACK 40 MODE1/2352
    INDEX 01 00:00:00
FILE "Tokimeki Card Paradise - Koi no Royal Straight Flush (Japan) (Track 41).bin" BINARY
  TRACK 41 MODE1/2352
    INDEX 01 00:00:00
FILE "Tokimeki Card Paradise - Koi no Royal Straight Flush (Japan) (Track 42).bin" BINARY
  TRACK 42 MODE1/2352
    INDEX 01 00:00:00
FILE "Tokimeki Card Paradise - Koi no Royal Straight Flush (Japan) (Track 43).bin" BINARY
  TRACK 43 MODE1/2352
    INDEX 01 00:00:00
FILE "Tokimeki Card Paradise - Koi no Royal Straight Flush (Japan) (Track 44).bin" BINARY
  TRACK 44 MODE1/2352
    INDEX 01 00:00:00
FILE "Tokimeki Card Paradise - Koi no Royal Straight Flush (Japan) (Track 45).bin" BINARY
  TRACK 45 MODE1/2352
    INDEX 01 00:00:00
FILE "Tokimeki Card Paradise - Koi no Royal Straight Flush (Japan) (Track 46).bin" BINARY
  TRACK 46 MODE1/2352
    INDEX 01 00:00:00
FILE "Tokimeki Card Paradise - Koi no Royal Straight Flush (Japan) (Track 47).bin" BINARY
  TRACK 47 MODE1/2352
    INDEX 01 00:00:00
FILE "Tokimeki Card Paradise - Koi no Royal Straight Flush (Japan) (Track 48).bin" BINARY
  TRACK 48 MODE1/2352
    INDEX 01 00:00:00
FILE "Tokimeki Card Paradise - Koi no Royal Straight Flush (Japan) (Track 49).bin" BINARY
  TRACK 49 MODE1/2352
    INDEX 01 00:00:00
FILE "Tokimeki Card Paradise - Koi no Royal Straight Flush (Japan) (Track 50).bin" BINARY
  TRACK 50 MODE1/2352
    INDEX 01 00:00:00
FILE "Tokimeki Card Paradise - Koi no Royal Straight Flush (Japan) (Track 51).bin" BINARY
  TRACK 51 MODE1/2352
    INDEX 01 00:00:00
FILE "Tokimeki Card Paradise - Koi no Royal Straight Flush (Japan) (Track 52).bin" BINARY
  TRACK 52 MODE1/2352
    INDEX 01 00:00:00
FILE "Tokimeki Card Paradise - Koi no Royal Straight Flush (Japan) (Track 53).bin" BINARY
  TRACK 53 MODE1/2352
    INDEX 01 00:00:00
FILE "Tokimeki Card Paradise - Koi no Royal Straight Flush (Japan) (Track 54).bin" BINARY
  TRACK 54 MODE1/2352
    INDEX 01 00:00:00
FILE "Tokimeki Card Paradise - Koi no Royal Straight Flush (Japan) (Track 55).bin" BINARY
  TRACK 55 MODE1/2352
    INDEX 01 00:00:00
FILE "Tokimeki Card Paradise - Koi no Royal Straight Flush (Japan) (Track 56).bin" BINARY
  TRACK 56 MODE1/2352
    INDEX 01 00:00:00
FILE "Tokimeki Card Paradise - Koi no Royal Straight Flush (Japan) (Track 57).bin" BINARY
  TRACK 57 MODE1/2352
    INDEX 01 00:00:00
FILE "Tokimeki Card Paradise - Koi no Royal Straight Flush (Japan) (Track 58).bin" BINARY
  TRACK 58 MODE1/2352
    INDEX 01 00:00:00
FILE "Tokimeki Card Paradise - Koi no Royal Straight Flush (Japan) (Track 59).bin" BINARY
  TRACK 59 MODE1/2352
    INDEX 01 00:00:00
FILE "Tokimeki Card Paradise - Koi no Royal Straight Flush (Japan) (Track 60).bin" BINARY
  TRACK 60 MODE1/2352
    INDEX 01 00:00:00
FILE "Tokimeki Card Paradise - Koi no Royal Straight Flush (Japan) (Track 61).bin" BINARY
  TRACK 61 MODE1/2352
    INDEX 01 00:00:00
FILE "Tokimeki Card Paradise - Koi no Royal Straight Flush (Japan) (Track 62).bin" BINARY
  TRACK 62 MODE1/2352
    INDEX 01 00:00:00
FILE "Tokimeki Card Paradise - Koi no Royal Straight Flush (Japan) (Track 63).bin" BINARY
  TRACK 63 MODE1/2352
    INDEX 01 00:00:00
FILE "Tokimeki Card Paradise - Koi no Royal Straight Flush (Japan) (Track 64).bin" BINARY
  TRACK 64 MODE1/2352
    INDEX 01 00:00:00
FILE "Tokimeki Card Paradise - Koi no Royal Straight Flush (Japan) (Track 65).bin" BINARY
  TRACK 65 MODE1/2352
    INDEX 01 00:00:00
FILE "Tokimeki Card Paradise - Koi no Royal Straight Flush (Japan) (Track 66).bin" BINARY
  TRACK 66 MODE1/2352
    INDEX 01 00:00:00
FILE "Tokimeki Card Paradise - Koi no Royal Straight Flush (Japan) (Track 67).bin" BINARY
  TRACK 67 MODE1/2352
    INDEX 01 00:00:00
FILE "Tokimeki Card Paradise - Koi no Royal Straight Flush (Japan) (Track 68).bin" BINARY
  TRACK 68 MODE1/2352
    INDEX 01 00:00:00
FILE "Tokimeki Card Paradise - Koi no Royal Straight Flush (Japan) (Track 69).bin" BINARY
  TRACK 69 MODE1/2352
    INDEX 01 00:00:00
FILE "Tokimeki Card Paradise - Koi no Royal Straight Flush (Japan) (Track 70).bin" BINARY
  TRACK 70 MODE1/2352
    INDEX 01 00:00:00
FILE "Tokimeki Card Paradise - Koi no Royal Straight Flush (Japan) (Track 71).bin" BINARY
  TRACK 71 MODE1/2352
    INDEX 01 00:00:00
